<svg id="visual" viewBox="0 0 900 600" width="900" height="600" xmlns="http://www.w3.org/2000/svg" xmlns:xlink="http://www.w3.org/1999/xlink" version="1.1"><path d="M0 67L10 64C20 61 40 55 60 59C80 63 100 77 120 80C140 83 160 75 180 68C200 61 220 55 240 61C260 67 280 85 300 92C320 99 340 95 360 89C380 83 400 75 420 79C440 83 460 99 480 96C500 93 520 71 540 63C560 55 580 61 600 62C620 63 640 59 660 56C680 53 700 51 720 57C740 63 760 77 780 79C800 81 820 71 840 65C860 59 880 57 890 56L900 55L900 0L890 0C880 0 860 0 840 0C820 0 800 0 780 0C760 0 740 0 720 0C700 0 680 0 660 0C640 0 620 0 600 0C580 0 560 0 540 0C520 0 500 0 480 0C460 0 440 0 420 0C400 0 380 0 360 0C340 0 320 0 300 0C280 0 260 0 240 0C220 0 200 0 180 0C160 0 140 0 120 0C100 0 80 0 60 0C40 0 20 0 10 0L0 0Z" fill="#36b796"></path><path d="M0 277L10 258C20 239 40 201 60 196C80 191 100 219 120 230C140 241 160 235 180 235C200 235 220 241 240 251C260 261 280 275 300 272C320 269 340 249 360 244C380 239 400 249 420 261C440 273 460 287 480 276C500 265 520 229 540 229C560 229 580 265 600 277C620 289 640 277 660 269C680 261 700 257 720 250C740 243 760 233 780 227C800 221 820 219 840 220C860 221 880 225 890 227L900 229L900 53L890 54C880 55 860 57 840 63C820 69 800 79 780 77C760 75 740 61 720 55C700 49 680 51 660 54C640 57 620 61 600 60C580 59 560 53 540 61C520 69 500 91 480 94C460 97 440 81 420 77C400 73 380 81 360 87C340 93 320 97 300 90C280 83 260 65 240 59C220 53 200 59 180 66C160 73 140 81 120 78C100 75 80 61 60 57C40 53 20 59 10 62L0 65Z" fill="#21a584"></path><path d="M0 367L10 347C20 327 40 287 60 276C80 265 100 283 120 287C140 291 160 281 180 283C200 285 220 299 240 313C260 327 280 341 300 334C320 327 340 299 360 295C380 291 400 311 420 328C440 345 460 359 480 352C500 345 520 317 540 314C560 311 580 333 600 345C620 357 640 359 660 354C680 349 700 337 720 329C740 321 760 317 780 307C800 297 820 281 840 278C860 275 880 285 890 290L900 295L900 227L890 225C880 223 860 219 840 218C820 217 800 219 780 225C760 231 740 241 720 248C700 255 680 259 660 267C640 275 620 287 600 275C580 263 560 227 540 227C520 227 500 263 480 274C460 285 440 271 420 259C400 247 380 237 360 242C340 247 320 267 300 270C280 273 260 259 240 249C220 239 200 233 180 233C160 233 140 239 120 228C100 217 80 189 60 194C40 199 20 237 10 256L0 275Z" fill="#009473"></path><path d="M0 481L10 463C20 445 40 409 60 397C80 385 100 397 120 401C140 405 160 401 180 399C200 397 220 397 240 412C260 427 280 457 300 455C320 453 340 419 360 407C380 395 400 405 420 413C440 421 460 427 480 420C500 413 520 393 540 394C560 395 580 417 600 439C620 461 640 483 660 489C680 495 700 485 720 470C740 455 760 435 780 413C800 391 820 367 840 371C860 375 880 407 890 423L900 439L900 293L890 288C880 283 860 273 840 276C820 279 800 295 780 305C760 315 740 319 720 327C700 335 680 347 660 352C640 357 620 355 600 343C580 331 560 309 540 312C520 315 500 343 480 350C460 357 440 343 420 326C400 309 380 289 360 293C340 297 320 325 300 332C280 339 260 325 240 311C220 297 200 283 180 281C160 279 140 289 120 285C100 281 80 263 60 274C40 285 20 325 10 345L0 365Z" fill="#008064"></path><path d="M0 601L10 601C20 601 40 601 60 601C80 601 100 601 120 601C140 601 160 601 180 601C200 601 220 601 240 601C260 601 280 601 300 601C320 601 340 601 360 601C380 601 400 601 420 601C440 601 460 601 480 601C500 601 520 601 540 601C560 601 580 601 600 601C620 601 640 601 660 601C680 601 700 601 720 601C740 601 760 601 780 601C800 601 820 601 840 601C860 601 880 601 890 601L900 601L900 437L890 421C880 405 860 373 840 369C820 365 800 389 780 411C760 433 740 453 720 468C700 483 680 493 660 487C640 481 620 459 600 437C580 415 560 393 540 392C520 391 500 411 480 418C460 425 440 419 420 411C400 403 380 393 360 405C340 417 320 451 300 453C280 455 260 425 240 410C220 395 200 395 180 397C160 399 140 403 120 399C100 395 80 383 60 395C40 407 20 443 10 461L0 479Z" fill="#006c55"></path></svg>